<svg viewBox="0 0 138 138" fill="none" xmlns="http://www.w3.org/2000/svg">
<path d="M68.5 89.75V90.8655C68.5 96.4597 66.6237 101.892 63.1713 106.294L55.6709 115.857C51.144 121.629 44.2157 125 36.8805 125V125C23.6916 125 13 114.276 13 101.087V101.087C13 96.002 14.6202 91.0387 17.6254 86.9369L23.7091 78.6336C28.6063 71.9495 36.3961 68 44.6822 68H68.5H93.6698C101.473 68 108.864 64.4949 113.802 58.4524L119.718 51.2129C123.134 47.0332 125 41.8013 125 36.4035V36.4035C125 23.4781 114.522 13 101.596 13H101.16C93.803 13 86.8582 16.3966 82.3416 22.2037L73.4115 33.6852C70.2283 37.778 68.5 42.815 68.5 48V48" stroke="black" stroke-width="25"/>
</svg>
