<svg width="165" height="156" viewBox="0 0 165 156" fill="none" xmlns="http://www.w3.org/2000/svg">
<path d="M13.0495 0.500098C6.14604 0.472733 0.527464 6.04695 0.500098 12.9505C0.472733 19.854 6.04695 25.4725 12.9505 25.4999L13.0495 0.500098ZM151.95 26.0509C158.854 26.0783 164.473 20.504 164.5 13.6005C164.527 6.69704 158.953 1.07845 152.05 1.05109L151.95 26.0509ZM13 65.522C6.09644 65.522 0.5 71.1184 0.5 78.022C0.5 84.9256 6.09644 90.522 13 90.522V65.522ZM13.0495 129.949C6.14604 129.922 0.527464 135.496 0.500098 142.399C0.472733 149.303 6.04695 154.922 12.9505 154.949L13.0495 129.949ZM151.95 155.5C158.854 155.527 164.473 149.953 164.5 143.05C164.527 136.146 158.953 130.527 152.05 130.5L151.95 155.5ZM82.5 90.522C89.4036 90.522 95 84.9256 95 78.022C95 71.1184 89.4036 65.522 82.5 65.522V90.522ZM152.05 1.05109L13.0495 0.500098L12.9505 25.4999L151.95 26.0509L152.05 1.05109ZM152.05 130.5L13.0495 129.949L12.9505 154.949L151.95 155.5L152.05 130.5ZM82.5 65.522H13V90.522H82.5V65.522Z" fill="black"/>
</svg>
