<svg width="22" height="22" viewBox="0 0 22 22" fill="none" xmlns="http://www.w3.org/2000/svg">
    <g clip-path="url(#clip0_8155_17372)">
        <path fill-rule="evenodd" clip-rule="evenodd"
              d="M11.7118 1.65203C11.8605 2.05261 11.7383 2.50339 11.4076 2.77396C10.1541 3.79949 9.35944 5.28094 9.19829 6.8924C9.03715 8.50386 9.52275 10.1133 10.5483 11.3668C11.5738 12.6202 13.0553 13.4149 14.6667 13.576C16.2782 13.7372 17.8877 13.2516 19.1411 12.226C19.4718 11.9555 19.9378 11.9249 20.301 12.15C20.6642 12.375 20.8443 12.806 20.7492 13.2225C20.3327 15.0473 19.4125 16.7185 18.0931 18.0461C16.7738 19.3737 15.1083 20.3044 13.2862 20.7323C11.4641 21.1602 9.55842 21.0682 7.78603 20.4666C6.01364 19.8651 4.44566 18.7782 3.26043 17.3295C2.07521 15.8809 1.32032 14.1288 1.08164 12.2724C0.842968 10.416 1.13008 8.52982 1.91032 6.82852C2.69057 5.12721 3.93262 3.67902 5.4952 2.6487C7.05777 1.61837 8.87815 1.04725 10.7492 1.00032C11.1764 0.989603 11.5632 1.25146 11.7118 1.65203ZM8.22763 3.49291C7.65671 3.70383 7.10908 3.98018 6.59616 4.31839C5.3461 5.14265 4.35245 6.3012 3.72826 7.66225C3.10407 9.02329 2.87438 10.5322 3.06532 12.0173C3.25626 13.5025 3.86017 14.9042 4.80835 16.0631C5.75653 17.222 7.01092 18.0915 8.42882 18.5727C9.84674 19.054 11.3712 19.1276 12.8289 18.7853C14.2866 18.443 15.619 17.6984 16.6745 16.6363C17.1076 16.2006 17.4869 15.7185 17.8067 15.2006C16.7415 15.5509 15.605 15.6798 14.4677 15.5661C12.3285 15.3522 10.3618 14.2972 9.00037 12.6332C7.63895 10.9693 6.99429 8.83266 7.20822 6.69339C7.32195 5.55612 7.67338 4.46762 8.22763 3.49291Z"
              fill="black" stroke="black" stroke-linecap="round" stroke-linejoin="round"/>
    </g>
    <defs>
        <clipPath id="clip0_8155_17372">
            <rect width="21.5" height="21.5" fill="white"/>
        </clipPath>
    </defs>
</svg>
