<svg viewBox="0 0 133 153" fill="none" xmlns="http://www.w3.org/2000/svg">
    <path
            d="M0 29V140C0 146.627 5.39287 152 12.0453 152H37.2483C43.0098 152 47.6805 147.347 47.6805 141.607C47.6805 135.867 43.0098 131.214 37.2483 131.214H24.2113C22.483 131.214 21.0819 129.818 21.0819 128.096V66.5H112.298V73.1439C112.298 78.8606 116.932 83.495 122.649 83.495C128.366 83.495 133 78.8606 133 73.1439V29C133 22.3726 127.607 17 120.955 17H109.411V12C109.411 5.37258 104.018 0 97.366 0H95.2301C88.5776 0 83.1848 5.37258 83.1848 12V17H48.5245V12C48.5245 5.37259 43.1316 0 36.4792 0H34.1283C27.4759 0 22.083 5.37258 22.083 12V17H12.0453C5.39286 17 0 22.3726 0 29Z"
    />
    <path
            fill-rule="evenodd"
            clip-rule="evenodd"
            d="M84 142C66.8792 142 53 128.121 53 111C53 93.8792 66.8792 80 84 80C101.121 80 115 93.8792 115 111C115 118.137 112.588 124.71 108.536 129.95L112.99 136.244C116.181 140.752 115.113 146.993 110.605 150.183C106.096 153.374 99.8555 152.306 96.6651 147.797L91.8523 140.997C89.3445 141.652 86.7129 142 84 142ZM84 122C90.0751 122 95 117.075 95 111C95 104.925 90.0751 100 84 100C77.9249 100 73 104.925 73 111C73 117.075 77.9249 122 84 122Z"
    />
</svg>