<svg width="175" height="166" viewBox="0 0 175 166" fill="none" xmlns="http://www.w3.org/2000/svg">
<path d="M0 87.0091V165.988H37.6255V87.208C37.6255 69.4864 47.1213 53.1235 62.508 44.3311C77.6901 35.6557 96.328 35.6557 111.51 44.3311C126.897 53.1235 136.393 69.4864 136.393 87.2081V165.988H174.018V87.0091C174.018 57.5293 159.091 30.0545 134.359 14.0118C105.557 -4.67061 68.4616 -4.67061 39.6595 14.0118C14.9271 30.0545 0 57.5293 0 87.0091Z" fill="black"/>
<path d="M70.5479 81.3302C70.5479 73.5377 76.865 67.2206 84.6575 67.2206C92.45 67.2206 98.767 73.5377 98.767 81.3302V100.143H108.173C115.966 100.143 122.283 106.46 122.283 114.253C122.283 122.045 115.966 128.362 108.173 128.362H84.6575C76.865 128.362 70.5479 122.045 70.5479 114.253V81.3302Z" fill="black"/>
</svg>
