<svg width="23" height="20" viewBox="0 0 23 20" fill="none" xmlns="http://www.w3.org/2000/svg">
    <rect x="5.4519" y="5.37146" width="2.83951" height="2.83951" rx="0.908642" fill="currentColor"/>
    <rect x="5.4519" y="9.80115" width="2.83951" height="2.83951" rx="0.908642" fill="currentColor"/>
    <rect x="10.79" y="9.80115" width="2.83951" height="2.83951" rx="0.908642" fill="currentColor"/>
    <rect x="10.79" y="5.37146" width="2.83951" height="2.83951" rx="0.908642" fill="currentColor"/>
    <path d="M19.337 18.49V16.1048M19.337 16.1048H17.0938L19.337 11.6752L21.5802 16.1048H19.337ZM13.5728 18.49H11.6987C11.4478 18.49 11.2444 18.2866 11.2444 18.0357V16.1616C11.2444 15.9107 11.041 15.7073 10.79 15.7073H8.1777C7.92679 15.7073 7.72338 15.9107 7.72338 16.1616V18.0357C7.72338 18.2866 7.51998 18.49 7.26906 18.49H1.874C1.62308 18.49 1.41968 18.2866 1.41968 18.0357V1.96409C1.41968 1.71317 1.62308 1.50977 1.874 1.50977H16.8098C17.0607 1.50977 17.2641 1.71317 17.2641 1.96409V8.09742"
          stroke="currentColor" stroke-width="2.83951" stroke-linecap="round" stroke-linejoin="round"/>
</svg>
