<svg viewBox="0 0 25 25" fill="none" xmlns="http://www.w3.org/2000/svg">
    <path
            d="M22.5473 20.6865L18.218 21.6486C17.9257 21.7136 17.6484 21.4912 17.6484 21.1917V5.88642C17.6484 5.66702 17.8008 5.47712 18.0149 5.42952L22.3442 4.46742C22.6365 4.40242 22.9138 4.62492 22.9138 4.92432V20.2297C22.9138 20.449 22.7615 20.639 22.5473 20.6865Z"
            fill="currentColor"/>
    <path
            d="M11.2714 17.1533C11.2714 16.3455 10.6166 15.6907 9.80876 15.6907C9.00098 15.6907 8.34614 16.3455 8.34614 17.1533H11.2714ZM8.34614 8.37762C8.34614 9.18542 9.00098 9.84032 9.80876 9.84032C10.6166 9.84032 11.2714 9.18542 11.2714 8.37762H8.34614ZM2.08615 12.707L1.04507 11.6797C0.483024 12.2492 0.483024 13.1647 1.04507 13.7343L2.08615 12.707ZM6.5334 10.2825C7.10077 9.70762 7.09461 8.78152 6.51964 8.21412C5.94467 7.64682 5.01861 7.65292 4.45124 8.22792L6.5334 10.2825ZM4.45124 17.1861C5.01861 17.761 5.94467 17.7672 6.51964 17.1998C7.09461 16.6325 7.10077 15.7064 6.5334 15.1314L4.45124 17.1861ZM12.1946 14.1696C13.0024 14.1696 13.6572 13.5148 13.6572 12.707C13.6572 11.8992 13.0024 11.2444 12.1946 11.2444V14.1696ZM22.4458 2.87823H10.2768V5.80342H22.4458V2.87823ZM8.34614 17.1533V20.1371H11.2714V17.1533H8.34614ZM8.34614 4.80892V8.37762H11.2714V4.80892H8.34614ZM24.3764 4.80892C24.3764 3.74262 23.5121 2.87823 22.4458 2.87823V5.80342C21.8965 5.80342 21.4512 5.35812 21.4512 4.80892H24.3764ZM10.2768 19.1425C10.8261 19.1425 11.2714 19.5878 11.2714 20.1371H8.34614C8.34614 21.2033 9.21052 22.0677 10.2768 22.0677V19.1425ZM10.2768 2.87823C9.21052 2.87823 8.34614 3.74262 8.34614 4.80892H11.2714C11.2714 5.35812 10.8261 5.80342 10.2768 5.80342V2.87823ZM18.5352 23.0764L22.8646 22.1143L22.23 19.2588L17.9007 20.2208L18.5352 23.0764ZM22.027 3.03963L17.6976 4.00173L18.3322 6.85732L22.6615 5.89522L22.027 3.03963ZM24.3764 4.92432C24.3764 3.68912 23.2327 2.7717 22.027 3.03963L22.6615 5.89522C22.0404 6.03322 21.4512 5.56063 21.4512 4.92432H24.3764ZM22.8646 22.1143C23.7479 21.918 24.3764 21.1346 24.3764 20.2297H21.4512C21.4512 19.7635 21.775 19.3599 22.23 19.2588L22.8646 22.1143ZM16.1858 21.1917C16.1858 22.4269 17.3295 23.3443 18.5352 23.0764L17.9007 20.2208C18.5218 20.0828 19.111 20.5554 19.111 21.1917H16.1858ZM19.111 5.88643C19.111 6.35252 18.7873 6.75612 18.3322 6.85732L17.6976 4.00173C16.8143 4.19803 16.1858 4.98152 16.1858 5.88643H19.111ZM3.12723 13.7343L6.5334 10.2825L4.45124 8.22792L1.04507 11.6797L3.12723 13.7343ZM6.5334 15.1314L3.12723 11.6797L1.04507 13.7343L4.45124 17.1861L6.5334 15.1314ZM2.08615 14.1696H12.1946V11.2444H2.08615V14.1696ZM24.3764 4.92432V4.80892H21.4512V4.92432H24.3764ZM24.3764 20.2297V20.1371H21.4512V20.2297H24.3764ZM24.3764 20.1371V4.92432H21.4512V20.1371H24.3764ZM16.1858 5.88643V20.6051H19.111V5.88643H16.1858ZM16.1858 20.6051V21.1917H19.111V20.6051H16.1858ZM10.2768 22.0677H17.6484V19.1425H10.2768V22.0677Z"
            fill="currentColor"/>
</svg>
  