<svg viewBox="0 0 141 172" fill="none" xmlns="http://www.w3.org/2000/svg">
    <path d="M51 0.5C44.0964 0.5 38.5 6.09644 38.5 13C38.5 19.9036 44.0964 25.5 51 25.5V0.5ZM90 25.5C96.9036 25.5 102.5 19.9036 102.5 13C102.5 6.09644 96.9036 0.5 90 0.5V25.5ZM124.761 51.5115L133.6 42.6726L124.761 51.5115ZM124.73 52.9557L116.284 43.7413L124.73 52.9557ZM120.793 48.926L112.153 39.893L120.793 48.926ZM122.192 48.9416L113.353 57.7804L122.192 48.9416ZM83 43.75V13H58V43.75H83ZM70.5 0.5H51V25.5H70.5V0.5ZM70.5 25.5H90V0.5H70.5V25.5ZM118.64 68.283L129.434 57.9591L112.153 39.893L101.36 50.217L118.64 68.283ZM113.353 57.7804L115.923 60.3503L133.6 42.6726L131.03 40.1027L113.353 57.7804ZM116.284 43.7413L105.053 54.0356L121.947 72.4644L133.177 62.1702L116.284 43.7413ZM115.923 60.3503C111.293 55.7207 111.457 48.1655 116.284 43.7413L133.177 62.1702C138.842 56.9766 139.035 48.1075 133.6 42.6726L115.923 60.3503ZM129.434 57.9591C124.916 62.2804 117.773 62.201 113.353 57.7804L131.03 40.1027C125.841 34.9133 117.456 34.8202 112.153 39.893L129.434 57.9591ZM140.5 101.25C140.5 62.5901 109.16 31.25 70.5 31.25V56.25C95.3528 56.25 115.5 76.3972 115.5 101.25H140.5ZM25.5 101.25C25.5 76.3972 45.6472 56.25 70.5 56.25V31.25C31.8401 31.25 0.5 62.5901 0.5 101.25H25.5ZM0.5 101.25C0.5 139.91 31.8401 171.25 70.5 171.25V146.25C45.6472 146.25 25.5 126.103 25.5 101.25H0.5ZM115.5 101.25C115.5 126.103 95.3528 146.25 70.5 146.25V171.25C109.16 171.25 140.5 139.91 140.5 101.25H115.5Z"
          fill="black"/>
    <path d="M60.5 81.25V106.25C60.5 112 65 117.25 71.5 117.25H89.5C95.0228 117.25 99.5 112.773 99.5 107.25C99.5 101.727 95.0228 97.25 89.5 97.25H80.5V81.25C80.5 75.7272 76.0228 71.25 70.5 71.25C64.9772 71.25 60.5 75.7272 60.5 81.25Z"
          fill="black"/>
</svg>
