<svg xmlns="http://www.w3.org/2000/svg" fill="none" viewBox="0 0 22 20">
    <path stroke="currentColor" stroke-linecap="round" stroke-width="2.80184"
          d="m18.2109 8.00075 1.7651 3.05735c.1238.2144.0504.4886-.1641.6124L8.06785 18.4509c-.21442.1238-.48859.0504-.61239-.1641L5.6903 15.2295m12.5206-7.22875-1.9445-3.3679m1.9445 3.3679-1.2191.70385m-.7254-4.07175-1.6857-2.91974c-.1238-.21441-.398-.28788-.6124-.16408L2.22422 8.32948c-.21441.12379-.28788.39797-.16409.61238l1.68572 2.91974M16.2664 4.63285l-1.2191.70385M3.74585 11.8616l1.94445 3.3679m-1.94445-3.3679 1.41321-.8159m.53124 4.1838 1.41322-.8159"/>
</svg>