<svg width="59" height="54" viewBox="0 0 59 54" fill="none" xmlns="http://www.w3.org/2000/svg">
<path d="M59 42.3574C58.9995 44.7664 57.1201 46.7188 54.8003 46.7189H41.3342C39.7486 46.7183 38.4633 45.5467 38.463 43.9C38.463 42.2529 39.7483 41.2006 41.3342 41.2H53.3321V5.63L29.0164 5.5L5.41639 5.63V11.7155C5.41612 13.3626 4.29431 14.8 2.7082 14.8C1.12208 14.8 0.000274936 13.3626 0 11.7155V4.35093C0 1.9479 1.87563 0 4.18952 0H54.8003C57.1203 8.46205e-05 58.9998 1.95215 59 4.36152V42.3574Z" fill="currentColor"/>
<path d="M43.9867 36.6883C45.4347 36.8414 46.4854 37.7041 46.4854 39.2483C46.4854 40.7925 45.4375 41.6477 43.9894 41.8008H37.8283C36.242 41.8008 35.1357 40.8957 35.1357 39.2483C35.1357 37.6009 36.1819 36.6883 37.7682 36.6883H43.9867Z" fill="currentColor"/>
<path d="M13.6319 41.82C10.1446 41.8204 6.60607 45.3815 6.14785 48.64H24.8209C24.3544 45.3815 20.8244 41.82 17.3369 41.82H13.6319ZM30.9713 50.6183C30.9713 52.4859 29.5132 53.9995 27.7151 54H3.25624C1.45768 54 0 52.4861 0 50.6183C0.000446129 42.7992 6.10283 36.4617 13.6319 36.4612H17.3369C24.8663 36.4612 30.9709 42.7989 30.9713 50.6183Z" fill="currentColor"/>
<path d="M17.7774 26.9001C17.7774 26.136 17.1874 24.5201 15.4838 24.52C13.813 24.5199 13.1831 26.136 13.1831 26.9001C13.1833 27.6642 13.7828 29.28 15.4838 29.28C17.1874 29.2799 17.7772 27.6641 17.7774 26.9001ZM22.5598 26.9001C22.5597 30.9589 19.392 34.2486 15.4838 34.2488C11.5755 34.2488 8.40793 30.959 8.4078 26.9001C8.4078 22.8412 11.5754 19.5515 15.4838 19.5515C19.3921 19.5516 22.5598 22.8412 22.5598 26.9001Z" fill="currentColor"/>
<path fill-rule="evenodd" clip-rule="evenodd" d="M27.7142 51.0183H3.25555C3.04328 51.0183 2.87121 50.8396 2.87121 50.6192C2.87121 44.4468 7.68928 39.4431 13.6327 39.4431H17.3371C23.2805 39.4431 28.0986 44.4468 28.0986 50.6192C28.0986 50.8396 27.9265 51.0183 27.7142 51.0183ZM6.14785 48.64C6.60607 45.3815 10.1446 41.8204 13.6319 41.82H17.3369C20.8244 41.82 24.3544 45.3815 24.8209 48.64H6.14785Z" fill="currentColor"/>
<path fill-rule="evenodd" clip-rule="evenodd" d="M19.6881 26.8999C19.6881 24.4883 17.8057 22.5333 15.4836 22.5333C13.1615 22.5333 11.279 24.4883 11.279 26.8999C11.279 29.3115 13.1615 31.2664 15.4836 31.2664C17.8057 31.2664 19.6881 29.3115 19.6881 26.8999ZM15.4838 24.52C17.1874 24.5201 17.7774 26.136 17.7774 26.9001C17.7772 27.6641 17.1874 29.2799 15.4838 29.28C13.7828 29.28 13.1833 27.6642 13.1831 26.9001C13.1831 26.136 13.813 24.5199 15.4838 24.52Z" fill="currentColor"/>
</svg>
