<svg viewBox="0 0 872 168" fill="none" xmlns="http://www.w3.org/2000/svg">
    <path d="M72.5331 167.599C60.8064 167.599 50.2981 165.695 41.0081 161.888C31.7181 158.081 24.2556 152.446 18.6207 144.983C13.1381 137.521 10.2445 128.535 9.93992 118.027H51.5164C52.1256 123.967 54.1816 128.535 57.6844 131.734C61.1872 134.78 65.756 136.302 71.3909 136.302C77.1781 136.302 81.747 135.008 85.0975 132.419C88.4479 129.678 90.1232 125.946 90.1232 121.225C90.1232 117.266 88.7525 113.991 86.0112 111.402C83.4222 108.813 80.1479 106.681 76.1882 105.006C72.3808 103.331 66.8982 101.427 59.7404 99.2948C49.3843 96.0966 40.9319 92.8984 34.3832 89.7002C27.8346 86.5021 22.1997 81.7809 17.4785 75.5368C12.7574 69.2927 10.3968 61.145 10.3968 51.0935C10.3968 36.1686 15.8033 24.518 26.6162 16.1418C37.4291 7.6133 51.5164 3.34904 68.878 3.34904C86.5443 3.34904 100.784 7.6133 111.597 16.1418C122.41 24.518 128.197 36.2447 128.958 51.3219H86.6966C86.392 46.1439 84.4883 42.1081 80.9855 39.2145C77.4827 36.1686 72.99 34.6456 67.5074 34.6456C62.7862 34.6456 58.9789 35.9401 56.0853 38.5292C53.1917 40.9659 51.7449 44.5448 51.7449 49.2659C51.7449 54.444 54.1816 58.4798 59.055 61.3734C63.9285 64.267 71.5432 67.389 81.8993 70.7395C92.2553 74.2423 100.632 77.5928 107.028 80.791C113.577 83.9892 119.212 88.6342 123.933 94.726C128.654 100.818 131.014 108.661 131.014 118.256C131.014 127.393 128.654 135.693 123.933 143.156C119.364 150.618 112.663 156.558 103.83 160.974C94.9966 165.391 84.5644 167.599 72.5331 167.599ZM194.118 5.63346V166H155.054V5.63346H194.118ZM280.451 167.599C268.725 167.599 258.216 165.695 248.926 161.888C239.636 158.081 232.174 152.446 226.539 144.983C221.056 137.521 218.163 128.535 217.858 118.027H259.435C260.044 123.967 262.1 128.535 265.603 131.734C269.105 134.78 273.674 136.302 279.309 136.302C285.096 136.302 289.665 135.008 293.016 132.419C296.366 129.678 298.041 125.946 298.041 121.225C298.041 117.266 296.671 113.991 293.929 111.402C291.34 108.813 288.066 106.681 284.106 105.006C280.299 103.331 274.816 101.427 267.659 99.2948C257.303 96.0966 248.85 92.8984 242.301 89.7002C235.753 86.5021 230.118 81.7809 225.397 75.5368C220.676 69.2927 218.315 61.145 218.315 51.0935C218.315 36.1686 223.722 24.518 234.534 16.1418C245.347 7.6133 259.435 3.34904 276.796 3.34904C294.462 3.34904 308.702 7.6133 319.515 16.1418C330.328 24.518 336.115 36.2447 336.877 51.3219H294.615C294.31 46.1439 292.407 42.1081 288.904 39.2145C285.401 36.1686 280.908 34.6456 275.426 34.6456C270.704 34.6456 266.897 35.9401 264.004 38.5292C261.11 40.9659 259.663 44.5448 259.663 49.2659C259.663 54.444 262.1 58.4798 266.973 61.3734C271.847 64.267 279.461 67.389 289.818 70.7395C300.174 74.2423 308.55 77.5928 314.946 80.791C321.495 83.9892 327.13 88.6342 331.851 94.726C336.572 100.818 338.933 108.661 338.933 118.256C338.933 127.393 336.572 135.693 331.851 143.156C327.282 150.618 320.581 156.558 311.748 160.974C302.915 165.391 292.483 167.599 280.451 167.599ZM469.427 56.3477C466.533 51.0173 462.345 46.9815 456.862 44.2402C451.532 41.3466 445.212 39.8998 437.902 39.8998C425.261 39.8998 415.134 44.0879 407.519 52.4641C399.904 60.6881 396.097 71.7295 396.097 85.5883C396.097 100.361 400.056 111.935 407.976 120.312C416.047 128.535 427.089 132.647 441.1 132.647C450.694 132.647 458.766 130.211 465.315 125.337C472.016 120.464 476.889 113.458 479.935 104.321H430.363V75.5368H515.344V111.859C512.45 121.606 507.5 130.668 500.495 139.044C493.642 147.42 484.885 154.197 474.224 159.375C463.563 164.553 451.532 167.142 438.13 167.142C422.291 167.142 408.128 163.716 395.64 156.862C383.304 149.857 373.633 140.186 366.628 127.85C359.774 115.514 356.348 101.427 356.348 85.5883C356.348 69.7496 359.774 55.6623 366.628 43.3265C373.633 30.8383 383.304 21.1675 395.64 14.3143C407.976 7.3087 422.063 3.80592 437.902 3.80592C457.091 3.80592 473.234 8.45091 486.331 17.7409C499.581 27.0309 508.338 39.8998 512.602 56.3477H469.427ZM675.874 5.63346V166H636.811V99.9802H576.045V166H536.981V5.63346H576.045V68.4551H636.811V5.63346H675.874Z"
          fill="black"/>
    <path d="M697.629 87.0091V165.988H735.254V87.208C735.254 69.4864 744.75 53.1235 760.137 44.3311C775.319 35.6557 793.957 35.6557 809.139 44.3311C824.526 53.1235 834.021 69.4864 834.021 87.2081V165.988H871.647V87.0091C871.647 57.5293 856.72 30.0545 831.988 14.0118C803.185 -4.67061 766.091 -4.67061 737.288 14.0118C712.556 30.0545 697.629 57.5293 697.629 87.0091Z"
          fill="black"/>
    <path d="M768.177 81.3302C768.177 73.5377 774.494 67.2206 782.286 67.2206C790.079 67.2206 796.396 73.5377 796.396 81.3302V100.143H805.802C813.595 100.143 819.912 106.46 819.912 114.253C819.912 122.045 813.595 128.362 805.802 128.362H782.286C774.494 128.362 768.177 122.045 768.177 114.253V81.3302Z"
          fill="black"/>
</svg>
