<svg width="174" height="35" viewBox="0 0 174 35" fill="none" xmlns="http://www.w3.org/2000/svg">
<path fill-rule="evenodd" clip-rule="evenodd" d="M165.238 9.21915C160.603 3.97337 152.317 3.9331 147.518 9.12013C145.451 11.3546 144.278 14.3173 144.278 17.3432V34.1341H139.206V17.3432C139.206 13.0221 140.874 8.83418 143.796 5.67593C150.588 -1.66558 162.372 -1.68427 169.038 5.86133C171.776 8.95953 173.286 12.9512 173.286 17.0854V34.1341H168.215V17.0854C168.215 14.188 167.156 11.3905 165.238 9.21915Z" fill="black"/>
<path d="M156.274 22.6136C155.094 22.6136 154.136 21.6564 154.136 20.4756V13.5523C154.136 12.3714 155.094 11.4142 156.274 11.4142C157.455 11.4142 158.413 12.3714 158.413 13.5523V20.4756C158.413 21.6564 157.455 22.6136 156.274 22.6136Z" fill="black"/>
<path d="M154.136 20.4494C154.136 19.2686 155.094 18.3113 156.274 18.3113H163.198C164.379 18.3113 165.336 19.2686 165.336 20.4494C165.336 21.6302 164.379 22.5875 163.198 22.5875H156.274C155.094 22.5875 154.136 21.6302 154.136 20.4494Z" fill="black"/>
<path d="M12.2764 34.3314C10.0664 34.3314 8.07737 33.9526 6.30936 33.1948C4.54135 32.4055 3.1522 31.3005 2.1419 29.8798C1.13161 28.4591 0.626465 26.8016 0.626465 24.9073H6.40408C6.53036 26.328 7.08287 27.4962 8.06159 28.4117C9.07188 29.3273 10.4768 29.7851 12.2764 29.7851C14.1391 29.7851 15.5914 29.3431 16.6333 28.4591C17.6752 27.5435 18.1961 26.3754 18.1961 24.9546C18.1961 23.8496 17.8646 22.9498 17.2016 22.2553C16.5701 21.5607 15.7651 21.024 14.7864 20.6451C13.8392 20.2662 12.5132 19.8558 10.8083 19.4138C8.66145 18.8455 6.90922 18.2772 5.55164 17.7089C4.22563 17.1091 3.08905 16.1935 2.1419 14.9622C1.19475 13.7309 0.72118 12.0892 0.72118 10.037C0.72118 8.14273 1.19475 6.48522 2.1419 5.0645C3.08905 3.64377 4.41506 2.55455 6.11993 1.79683C7.8248 1.03911 9.79803 0.66025 12.0396 0.66025C15.2284 0.66025 17.833 1.46533 19.8536 3.07548C21.9058 4.65406 23.0423 6.83251 23.2633 9.61081H17.2963C17.2016 8.41109 16.6333 7.38501 15.5914 6.53258C14.5496 5.68014 13.1762 5.25392 11.4713 5.25392C9.92432 5.25392 8.66145 5.64857 7.68273 6.43786C6.70401 7.22715 6.21465 8.36373 6.21465 9.8476C6.21465 10.8579 6.51458 11.6945 7.11444 12.3575C7.74587 12.989 8.53516 13.4941 9.48231 13.873C10.4295 14.2518 11.7239 14.6623 13.3656 15.1043C15.5441 15.7041 17.3121 16.304 18.6697 16.9039C20.0588 17.5037 21.227 18.4351 22.1741 19.698C23.1528 20.9292 23.6422 22.5868 23.6422 24.6705C23.6422 26.3438 23.1844 27.9224 22.2688 29.4062C21.3848 30.8901 20.0746 32.0898 18.3382 33.0054C16.6333 33.8894 14.6127 34.3314 12.2764 34.3314Z" fill="black"/>
<path d="M35.4113 1.08647V33.9999H30.0125V1.08647H35.4113Z" fill="black"/>
<path d="M53.3442 34.3314C51.1342 34.3314 49.1452 33.9526 47.3772 33.1948C45.6092 32.4055 44.22 31.3005 43.2097 29.8798C42.1994 28.4591 41.6943 26.8016 41.6943 24.9073H47.4719C47.5982 26.328 48.1507 27.4962 49.1294 28.4117C50.1397 29.3273 51.5446 29.7851 53.3442 29.7851C55.2069 29.7851 56.6592 29.3431 57.7011 28.4591C58.743 27.5435 59.2639 26.3754 59.2639 24.9546C59.2639 23.8496 58.9324 22.9498 58.2694 22.2553C57.638 21.5607 56.8329 21.024 55.8542 20.6451C54.907 20.2662 53.581 19.8558 51.8761 19.4138C49.7293 18.8455 47.977 18.2772 46.6195 17.7089C45.2934 17.1091 44.1569 16.1935 43.2097 14.9622C42.2626 13.7309 41.789 12.0892 41.789 10.037C41.789 8.14273 42.2626 6.48522 43.2097 5.0645C44.1569 3.64377 45.4829 2.55455 47.1877 1.79683C48.8926 1.03911 50.8658 0.66025 53.1074 0.66025C56.2962 0.66025 58.9008 1.46533 60.9214 3.07548C62.9736 4.65406 64.1101 6.83251 64.3311 9.61081H58.3641C58.2694 8.41109 57.7011 7.38501 56.6592 6.53258C55.6174 5.68014 54.244 5.25392 52.5391 5.25392C50.9921 5.25392 49.7293 5.64857 48.7505 6.43786C47.7718 7.22715 47.2825 8.36373 47.2825 9.8476C47.2825 10.8579 47.5824 11.6945 48.1822 12.3575C48.8137 12.989 49.603 13.4941 50.5501 13.873C51.4973 14.2518 52.7917 14.6623 54.4334 15.1043C56.6119 15.7041 58.3799 16.304 59.7375 16.9039C61.1266 17.5037 62.2948 18.4351 63.2419 19.698C64.2206 20.9292 64.71 22.5868 64.71 24.6705C64.71 26.3438 64.2522 27.9224 63.3366 29.4062C62.4526 30.8901 61.1424 32.0898 59.406 33.0054C57.7011 33.8894 55.6805 34.3314 53.3442 34.3314Z" fill="black"/>
<path d="M94.9011 10.558C94.0487 8.91624 92.8648 7.68494 91.3493 6.86408C89.8339 6.01165 88.0817 5.58543 86.0926 5.58543C83.9142 5.58543 81.9725 6.07479 80.2677 7.05351C78.5628 8.03223 77.221 9.42138 76.2423 11.221C75.2951 13.0206 74.8216 15.1043 74.8216 17.4722C74.8216 19.84 75.2951 21.9395 76.2423 23.7707C77.221 25.5703 78.5628 26.9594 80.2677 27.9382C81.9725 28.9169 83.9142 29.4062 86.0926 29.4062C89.0288 29.4062 91.4125 28.5854 93.2436 26.9436C95.0748 25.3019 96.1956 23.0761 96.606 20.2662H84.2457V15.9567H102.384V20.1715C102.036 22.7288 101.121 25.0809 99.6369 27.2278C98.1846 29.3747 96.2745 31.0953 93.9066 32.3898C91.5703 33.6526 88.9657 34.2841 86.0926 34.2841C82.9986 34.2841 80.173 33.5737 77.6157 32.153C75.0584 30.7007 73.022 28.6959 71.5065 26.1386C70.0227 23.5813 69.2807 20.6925 69.2807 17.4722C69.2807 14.2518 70.0227 11.363 71.5065 8.80574C73.022 6.24843 75.0584 4.25942 77.6157 2.83869C80.2045 1.3864 83.0302 0.66025 86.0926 0.66025C89.5971 0.66025 92.7069 1.52847 95.4221 3.26491C98.1688 4.96978 100.158 7.4008 101.389 10.558H94.9011Z" fill="black"/>
<path d="M133.992 1.08647V33.9999H128.593V19.6032H113.107V33.9999H107.708V1.08647H113.107V15.199H128.593V1.08647H133.992Z" fill="black"/>
</svg>
