  <svg fill="none" viewBox="0 0 15 18" xmlns="http://www.w3.org/2000/svg">
    <path
      fill-rule="evenodd"
      clip-rule="evenodd"
      d="M2.39909 3.03765C5.23778 0.198979 9.84059 0.1991 12.6794 3.03765L12.9372 3.31011C15.5151 6.17287 15.4293 10.7261 12.6794 13.4761L12.6676 13.4869L12.6559 13.4986L8.47917 17.4986L8.36393 17.5982C7.76891 18.0635 6.90818 18.0186 6.36491 17.4712L2.39909 13.4751C-0.43964 10.6364 -0.439702 5.87644 2.39909 3.03765ZM4.53288 5.17144C6.19327 3.51107 8.88511 3.51119 10.5456 5.17144L10.6969 5.33062C12.2047 7.00887 12.1538 9.73281 10.5456 11.3414L7.46257 14.2945L4.53679 11.3462L4.53288 11.3423C2.87239 9.68185 2.87246 6.83186 4.53288 5.17144Z"
      fill="currentColor"
    />
    <path
      d="M7.43718 6.80034C8.27026 6.80085 8.94538 7.47699 8.94499 8.31011V8.40972C8.94455 9.24287 8.26838 9.91792 7.43522 9.91753C6.60216 9.91699 5.92702 9.24087 5.92741 8.40776V8.30816C5.92783 7.47499 6.60401 6.79995 7.43718 6.80034Z"
      fill="currentColor"
    />
  </svg>