<svg viewBox="0 0 21 21" fill="none" xmlns="http://www.w3.org/2000/svg">
<g clip-path="url(#clip0_9807_22006)">
<path d="M12.8702 15.1314V16.1045C12.8702 16.8786 12.5626 17.6212 12.0152 18.1687C11.4677 18.7161 10.7252 19.0236 9.95099 19.0236C9.17678 19.0236 8.43427 18.7161 7.88682 18.1687C7.33936 17.6212 7.03181 16.8786 7.03181 16.1045V15.1314M12.8702 15.1314H7.03181M12.8702 15.1314H16.3635C16.7362 15.1314 16.923 15.1314 17.0737 15.0808C17.2157 15.0328 17.3446 14.9526 17.4504 14.8467C17.5561 14.7406 17.6361 14.6117 17.6839 14.4696C17.7355 14.3179 17.7355 14.1311 17.7355 13.7555C17.7355 13.591 17.7355 13.5093 17.7218 13.4305C17.6979 13.2831 17.6402 13.1433 17.5535 13.0219C17.5068 12.9566 17.4485 12.8983 17.3326 12.7824M7.03181 15.1314H3.53852C3.16584 15.1314 2.97999 15.1314 2.82916 15.0808C2.68693 15.033 2.55768 14.953 2.4515 14.847C2.34533 14.741 2.26511 14.6118 2.21711 14.4696C2.1665 14.3179 2.1665 14.1311 2.1665 13.7555C2.1665 13.591 2.1665 13.5084 2.17915 13.4305C2.20362 13.2827 2.26189 13.1424 2.34945 13.0208C2.39517 12.9566 2.45259 12.8992 2.56935 12.7824L2.94884 12.403C3.00936 12.3424 3.05736 12.2704 3.09009 12.1913C3.12281 12.1121 3.13962 12.0274 3.13956 11.9417V8.31997C3.13956 7.42548 3.31575 6.53975 3.65805 5.71335C4.00036 4.88695 4.50209 4.13607 5.13459 3.50357C5.76709 2.87107 6.51797 2.36934 7.34437 2.02703C8.17077 1.68473 9.0565 1.50854 9.95099 1.50854C10.8455 1.50854 11.7312 1.68473 12.5576 2.02703C12.9453 2.18763 13.3164 2.38333 13.6665 2.61116M18.6665 5.00854L14.2201 9.37496L11.6665 7.00854" stroke="currentColor" stroke-width="3.01724" stroke-linecap="round" stroke-linejoin="round"/>
</g>
<defs>
<clipPath id="clip0_9807_22006">
<rect width="19.5181" height="20.5323" transform="translate(0.657227)"/>
</clipPath>
</defs>
</svg>
