<svg width="18" height="24" viewBox="0 0 18 24" fill="none" xmlns="http://www.w3.org/2000/svg">
<path d="M0 2.64813C0 1.18561 1.18472 0 2.64614 0C4.10756 0 5.29228 1.18561 5.29228 2.64813C5.29228 4.11064 4.10756 5.29625 2.64614 5.29625C1.18472 5.29625 0 4.11064 0 2.64813Z" fill="#CD2027"/>
<path d="M0 6.77099C0 6.37438 0.321279 6.05286 0.717597 6.05286H4.57468C4.971 6.05286 5.29228 6.37438 5.29228 6.77099V10.631C5.29228 11.0276 4.971 11.3491 4.57468 11.3491H0.717597C0.321279 11.3491 0 11.0276 0 10.631V6.77099Z" fill="#39A048"/>
<path d="M0 12.8239C0 12.4272 0.321279 12.1057 0.717597 12.1057H4.57468C4.971 12.1057 5.29228 12.4272 5.29228 12.8239V16.6838C5.29228 17.0804 4.971 17.402 4.57468 17.402H0.717597C0.321279 17.402 0 17.0804 0 16.6838V12.8239Z" fill="#39A048"/>
<path d="M0 18.8767C0 18.4801 0.321279 18.1586 0.717597 18.1586H4.57468C4.971 18.1586 5.29228 18.4801 5.29228 18.8767V22.7367C5.29228 23.1333 4.971 23.4548 4.57468 23.4548H0.717597C0.321279 23.4548 0 23.1333 0 22.7367V18.8767Z" fill="#39A048"/>
<path d="M6.04832 18.8767C6.04832 18.4801 6.3696 18.1586 6.76592 18.1586H10.623C11.0193 18.1586 11.3406 18.4801 11.3406 18.8767V22.7367C11.3406 23.1333 11.0193 23.4548 10.623 23.4548H6.76592C6.3696 23.4548 6.04832 23.1333 6.04832 22.7367V18.8767Z" fill="#39A048"/>
<path d="M6.04832 12.8239C6.04832 12.4272 6.3696 12.1057 6.76592 12.1057H10.623C11.0193 12.1057 11.3406 12.4272 11.3406 12.8239V16.6838C11.3406 17.0804 11.0193 17.402 10.623 17.402H6.76592C6.3696 17.402 6.04832 17.0804 6.04832 16.6838V12.8239Z" fill="#39A048"/>
<path d="M6.04832 6.77099C6.04832 6.37438 6.3696 6.05286 6.76592 6.05286H10.623C11.0193 6.05286 11.3406 6.37438 11.3406 6.77099V10.631C11.3406 11.0276 11.0193 11.3491 10.623 11.3491H6.76592C6.3696 11.3491 6.04832 11.0276 6.04832 10.631V6.77099Z" fill="#39A048"/>
<path d="M6.04832 0.718136C6.04832 0.32152 6.3696 0 6.76592 0H10.623C11.0193 0 11.3406 0.32152 11.3406 0.718136V4.57811C11.3406 4.97473 11.0193 5.29625 10.623 5.29625H6.76592C6.3696 5.29625 6.04832 4.97473 6.04832 4.57811V0.718136Z" fill="#39A048"/>
<path d="M12.0966 0.718136C12.0966 0.32152 12.4179 0 12.8142 0H16.6713C17.0676 0 17.3889 0.32152 17.3889 0.718136V4.57811C17.3889 4.97473 17.0676 5.29625 16.6713 5.29625H12.8142C12.4179 5.29625 12.0966 4.97473 12.0966 4.57811V0.718136Z" fill="#39A048"/>
<path d="M12.0966 12.8239C12.0966 12.4272 12.4179 12.1057 12.8142 12.1057H16.6713C17.0676 12.1057 17.3889 12.4272 17.3889 12.8239V16.6838C17.3889 17.0804 17.0676 17.402 16.6713 17.402H12.8142C12.4179 17.402 12.0966 17.0804 12.0966 16.6838V12.8239Z" fill="#39A048"/>
</svg>
