<svg width="243" height="175" viewBox="0 0 243 175" fill="none" xmlns="http://www.w3.org/2000/svg">
<g clip-path="url(#clip0_6281_9605)">
<path d="M121.5 13C69.7949 13 22.7438 73.0946 13.6001 85.4738C12.6078 86.8171 12.6078 88.5579 13.6001 89.9012C22.7438 102.28 69.7949 162.375 121.5 162.375C173.205 162.375 220.256 102.28 229.4 89.9012C230.392 88.5579 230.392 86.8171 229.4 85.4738C220.256 73.0946 173.205 13 121.5 13Z" stroke="black" stroke-width="25"/>
<path fill-rule="evenodd" clip-rule="evenodd" d="M122 40C96.0426 40 75 61.0426 75 87C75 112.957 96.0426 134 122 134C147.957 134 169 112.957 169 87C169 61.0426 147.957 40 122 40ZM99 87C99 99.7025 109.297 110 122 110C134.703 110 145 99.7025 145 87C145 74.2975 134.703 64 122 64C109.297 64 99 74.2975 99 87Z" fill="black"/>
</g>
<defs>
<clipPath id="clip0_6281_9605">
<rect width="243" height="175" fill="white"/>
</clipPath>
</defs>
</svg>
