<svg width="18" height="20" viewBox="0 0 18 20" fill="none" xmlns="http://www.w3.org/2000/svg">
<path d="M1.36579 2.65886C0.611486 2.65886 0 3.27035 0 4.02465V6.69933H17.357V4.02466C17.357 3.27035 16.7455 2.65886 15.9912 2.65886H14.6823V1.5207C14.6823 0.766394 14.0708 0.154907 13.3165 0.154907H11.7231C10.9688 0.154907 10.3573 0.766394 10.3573 1.5207V2.65886H6.94278V1.5207C6.94278 0.766394 6.3313 0.154907 5.57699 0.154907H3.86975C3.11544 0.154907 2.50395 0.766394 2.50395 1.5207V2.65886H1.36579Z" fill="white"/>
<path fill-rule="evenodd" clip-rule="evenodd" d="M1.36579 19.8451C0.611485 19.8451 0 19.2336 0 18.4793V8.46348H17.4139V18.4793C17.4139 19.2336 16.8024 19.8451 16.0481 19.8451H1.36579ZM3.30067 16.9997C3.04923 16.9997 2.8454 16.7959 2.8454 16.5444V11.252H14.5116V16.5444C14.5116 16.7959 14.3077 16.9997 14.0563 16.9997H3.30067Z" fill="white"/>
</svg>
