<svg width="17" height="18" viewBox="0 0 17 18" fill="none" xmlns="http://www.w3.org/2000/svg">
<path id="Gear" d="M8.50193 12.3199C7.69078 12.3199 6.91285 11.9976 6.33927 11.4241C5.7657 10.8505 5.44347 10.0726 5.44347 9.2614C5.44347 8.45025 5.7657 7.67232 6.33927 7.09875C6.91285 6.52517 7.69078 6.20294 8.50193 6.20294C9.31308 6.20294 10.091 6.52517 10.6646 7.09875C11.2382 7.67232 11.5604 8.45025 11.5604 9.2614C11.5604 10.0726 11.2382 10.8505 10.6646 11.4241C10.091 11.9976 9.31308 12.3199 8.50193 12.3199ZM14.9946 10.109C15.0296 9.8294 15.0558 9.54977 15.0558 9.2614C15.0558 8.97303 15.0296 8.68467 14.9946 8.38756L16.8384 6.96319C17.0044 6.83211 17.0481 6.59617 16.9433 6.40393L15.1956 3.38042C15.0907 3.18818 14.8548 3.10953 14.6625 3.18818L12.4867 4.06202C12.0323 3.72122 11.5604 3.42412 11.0099 3.20566L10.6865 0.889966C10.6688 0.787042 10.6152 0.693724 10.5352 0.626546C10.4552 0.559369 10.3541 0.52267 10.2496 0.522951H6.75424C6.53578 0.522951 6.35227 0.680243 6.31732 0.889966L5.99399 3.20566C5.44347 3.42412 4.9716 3.72122 4.5172 4.06202L2.34132 3.18818C2.14908 3.10953 1.91314 3.18818 1.80828 3.38042L0.0605851 6.40393C-0.0530148 6.59617 -0.000583993 6.83211 0.165447 6.96319L2.00926 8.38756C1.97431 8.68467 1.94809 8.97303 1.94809 9.2614C1.94809 9.54977 1.97431 9.8294 2.00926 10.109L0.165447 11.5596C-0.000583993 11.6907 -0.0530148 11.9266 0.0605851 12.1189L1.80828 15.1424C1.91314 15.3346 2.14908 15.4045 2.34132 15.3346L4.5172 14.452C4.9716 14.8016 5.44347 15.0987 5.99399 15.3172L6.31732 17.6328C6.35227 17.8426 6.53578 17.9999 6.75424 17.9999H10.2496C10.4681 17.9999 10.6516 17.8426 10.6865 17.6328L11.0099 15.3172C11.5604 15.09 12.0323 14.8016 12.4867 14.452L14.6625 15.3346C14.8548 15.4045 15.0907 15.3346 15.1956 15.1424L16.9433 12.1189C17.0481 11.9266 17.0044 11.6907 16.8384 11.5596L14.9946 10.109Z" fill="white"/>
</svg>
