<svg viewBox="0 0 145 149" fill="none" xmlns="http://www.w3.org/2000/svg">
<path d="M72.4835 100.575C65.568 100.575 58.9357 97.8278 54.0457 92.9378C49.1557 88.0478 46.4085 81.4155 46.4085 74.5C46.4085 67.5845 49.1557 60.9522 54.0457 56.0622C58.9357 51.1722 65.568 48.425 72.4835 48.425C79.399 48.425 86.0313 51.1722 90.9213 56.0622C95.8113 60.9522 98.5585 67.5845 98.5585 74.5C98.5585 81.4155 95.8113 88.0478 90.9213 92.9378C86.0313 97.8278 79.399 100.575 72.4835 100.575ZM127.837 81.7265C128.135 79.3425 128.359 76.9585 128.359 74.5C128.359 72.0415 128.135 69.583 127.837 67.05L143.557 54.9065C144.972 53.789 145.345 51.7775 144.451 50.1385L129.551 24.3615C128.657 22.7225 126.645 22.052 125.006 22.7225L106.456 30.1725C102.582 27.267 98.5585 24.734 93.865 22.8715L91.1085 3.12901C90.9572 2.25153 90.5001 1.45594 89.8183 0.883222C89.1365 0.3105 88.2739 -0.00238232 87.3835 1.36593e-05H57.5835C55.721 1.36593e-05 54.1565 1.34101 53.8585 3.12901L51.102 22.8715C46.4085 24.734 42.3855 27.267 38.5115 30.1725L19.961 22.7225C18.322 22.052 16.3105 22.7225 15.4165 24.3615L0.51652 50.1385C-0.45198 51.7775 -0.00497878 53.789 1.41052 54.9065L17.13 67.05C16.832 69.583 16.6085 72.0415 16.6085 74.5C16.6085 76.9585 16.832 79.3425 17.13 81.7265L1.41052 94.0935C-0.00497878 95.211 -0.45198 97.2225 0.51652 98.8615L15.4165 124.638C16.3105 126.277 18.322 126.874 19.961 126.278L38.5115 118.753C42.3855 121.733 46.4085 124.266 51.102 126.129L53.8585 145.871C54.1565 147.659 55.721 149 57.5835 149H87.3835C89.246 149 90.8105 147.659 91.1085 145.871L93.865 126.129C98.5585 124.192 102.582 121.733 106.456 118.753L125.006 126.278C126.645 126.874 128.657 126.277 129.551 124.638L144.451 98.8615C145.345 97.2225 144.972 95.211 143.557 94.0935L127.837 81.7265Z" fill="black"/>
</svg>
