<svg width="20" height="18" viewBox="0 0 20 18" fill="none" xmlns="http://www.w3.org/2000/svg">
<path d="M6.28571 11.4857V13.8557C6.28571 14.0728 6.4375 14.2592 6.6513 14.2966C7.30308 14.4108 8.72788 14.6286 10.1143 14.6286C11.5007 14.6286 12.9255 14.4108 13.5773 14.2966C13.7911 14.2592 13.9429 14.0728 13.9429 13.8557V11.4857M6.28571 11.4857L2.57976 9.5092C2.29876 9.35934 2.25327 8.97527 2.49147 8.7639L9.81087 2.26922C9.98399 2.11562 10.2446 2.11562 10.4177 2.26922L17.7371 8.7639C17.9753 8.97527 17.9298 9.35934 17.6488 9.5092L13.9429 11.4857M6.28571 11.4857C6.28571 11.4857 8.3954 9.77143 10.1143 9.77143C11.8332 9.77143 13.9429 11.4857 13.9429 11.4857M6.28571 11.4857L3.00393 12.788C2.82907 12.8574 2.74503 13.0566 2.81739 13.2303V13.2303C2.89779 13.4233 3.13283 13.497 3.30908 13.3846L6.28571 11.4857ZM6.28571 11.4857L4.48866 15.3365C4.38284 15.5633 4.50763 15.8306 4.74941 15.8951V15.8951C4.9659 15.9528 5.1878 15.8225 5.24279 15.6053L6.28571 11.4857Z" stroke="white" stroke-width="2.85714"/>
</svg>
