<svg width="25" height="24" viewBox="0 0 25 24" fill="none" xmlns="http://www.w3.org/2000/svg">
<path d="M7.54577 15.551V19.1042C7.54577 19.3178 7.69277 19.5022 7.90225 19.5438C8.68155 19.6985 10.6181 20.0408 12.5 20.0408C14.3819 20.0408 16.3185 19.6985 17.0978 19.5438C17.3072 19.5022 17.4542 19.3178 17.4542 19.1042V15.551M7.54577 15.551L2.51432 12.5885C2.25501 12.4359 2.2114 12.0786 2.42637 11.868L12.1801 2.31337C12.3578 2.13927 12.6422 2.13927 12.8199 2.31337L22.5736 11.868C22.7886 12.0786 22.745 12.4359 22.4857 12.5885L17.4542 15.551M7.54577 15.551C7.54577 15.551 10.2757 13.102 12.5 13.102C14.7243 13.102 17.4542 15.551 17.4542 15.551M7.54577 15.551L3.28482 17.4177C3.06202 17.5153 2.95467 17.7703 3.04056 17.9978L3.04865 18.0193C3.15418 18.2989 3.49522 18.4037 3.73956 18.2316L7.54577 15.551ZM7.54577 15.551L5.1572 21.2016C5.05091 21.4531 5.18728 21.741 5.44917 21.8181L5.60082 21.8628C5.85351 21.9372 6.11662 21.7832 6.1755 21.5264L7.54577 15.551Z" stroke="white" stroke-width="2.85714"/>
</svg>
