<svg width="21" height="20" viewBox="0 0 21 20" fill="none" xmlns="http://www.w3.org/2000/svg">
<path d="M13.9954 17.9084H2.51437C2.23029 17.9084 2 17.6782 2 17.3941V2.60592C2 2.32184 2.23029 2.09155 2.51437 2.09155H6.44206M13.9954 17.9084V2.09155M13.9954 17.9084H18.3641C18.6481 17.9084 18.8784 17.6782 18.8784 17.3941V2.60592C18.8784 2.32184 18.6481 2.09155 18.3641 2.09155H13.9954M13.9954 2.09155H7.68936M7.68936 2.09155H6.44206M7.68936 2.09155V6.0214C7.68936 6.30547 7.45907 6.53577 7.17499 6.53577H6.95643C6.67235 6.53577 6.44206 6.30547 6.44206 6.0214V2.09155" stroke="white" stroke-width="3.21482"/>
</svg>
