<svg width="187" height="178" viewBox="0 0 187 178" fill="none" xmlns="http://www.w3.org/2000/svg">
<path d="M157.645 71.1034L173.395 98.3832C174.499 100.296 173.844 102.743 171.931 103.847L67.1416 164.347C65.2284 165.452 62.7821 164.796 61.6775 162.883L45.9275 135.603M157.645 71.1034L140.295 41.0526M157.645 71.1034L146.767 77.3836M140.295 41.0526L125.254 15.0007C124.149 13.0875 121.703 12.432 119.79 13.5366L15.0007 74.0366C13.0875 75.1411 12.432 77.5875 13.5366 79.5007L28.5777 105.553M140.295 41.0526L129.417 47.3328M28.5777 105.553L45.9275 135.603M28.5777 105.553L41.1874 98.2724M45.9275 135.603L58.5372 128.323" stroke="black" stroke-width="25" stroke-linecap="round"/>
</svg>
