<svg viewBox="0 0 155 163" fill="none" xmlns="http://www.w3.org/2000/svg">
<path d="M39 150.5L26.5398 151.497C27.0595 157.993 32.483 163 39 163V150.5ZM115.5 150.5V163C121.941 163 127.327 158.106 127.943 151.695L115.5 150.5ZM142.5 43L154.924 44.3804C155.316 40.8466 154.185 37.3128 151.814 34.6635C149.443 32.0141 146.056 30.5 142.5 30.5V43ZM13 43V30.5C9.44446 30.5 6.05717 32.0141 3.6859 34.6635C1.31463 37.3128 0.183809 40.8466 0.576453 44.3804L13 43ZM18 88L5.57645 89.3804C6.27983 95.7108 11.6306 100.5 18 100.5V88ZM137.5 88V100.5C143.869 100.5 149.22 95.7108 149.924 89.3804L137.5 88ZM102.625 13H115.125C115.125 6.09644 109.529 0.5 102.625 0.5V13ZM52.875 13V0.5C45.9714 0.5 40.375 6.09644 40.375 13L52.875 13ZM39 163H115.5V138H39V163ZM127.943 151.695L133.943 89.1945L109.057 86.8055L103.057 149.305L127.943 151.695ZM21.5398 88.9968L26.5398 151.497L51.4602 149.503L46.4602 87.0032L21.5398 88.9968ZM0.576453 44.3804L5.57645 89.3804L30.4235 86.6196L25.4235 41.6196L0.576453 44.3804ZM18 100.5H34V75.5H18V100.5ZM121.5 100.5H137.5V75.5H121.5V100.5ZM149.924 89.3804L154.924 44.3804L130.076 41.6196L125.076 86.6196L149.924 89.3804ZM52.875 30.5H13V55.5H52.875V30.5ZM142.5 30.5H102.625V55.5H142.5V30.5ZM102.625 30.5H52.875V55.5H102.625V30.5ZM115.125 43V13H90.125V43H115.125ZM102.625 0.5H52.875V25.5H102.625V0.5ZM40.375 13V43H65.375V13H40.375ZM34 100.5H121.5V75.5H34V100.5Z" fill="black"/>
</svg>
