<svg width="251" height="249" viewBox="0 0 251 249" fill="none" xmlns="http://www.w3.org/2000/svg">
<path fill-rule="evenodd" clip-rule="evenodd" d="M31.6481 124.688C32.5477 123.55 33.552 122.301 34.6553 120.961C40.1651 114.266 48.0617 105.371 57.6259 96.5166C77.3273 78.2783 101.662 62.5 125.5 62.5C134.857 62.5 144.398 64.9264 153.903 69.171L164.097 46.3438C152.221 41.0402 139.183 37.5 125.5 37.5C91.6955 37.5 61.2806 59.0655 40.6426 78.1709C30.037 87.9888 21.3665 97.7657 15.3517 105.075C12.3364 108.738 9.96854 111.806 8.33827 113.982C7.52269 115.07 6.89037 115.937 6.45258 116.545C6.23365 116.849 6.06324 117.088 5.94276 117.259C5.88252 117.344 5.83475 117.412 5.79963 117.462L5.75644 117.524L5.742 117.544L5.73658 117.552C5.73437 117.555 5.73235 117.558 16 124.688L5.73235 117.558L0.782349 124.688L5.73235 131.817L16 124.688C5.73235 131.817 5.73447 131.82 5.73447 131.82L5.74287 131.832L5.75888 131.855L5.80729 131.924C5.84683 131.98 5.90086 132.057 5.96917 132.154C6.10577 132.347 6.29954 132.619 6.54874 132.964C7.04705 133.654 7.76764 134.638 8.69668 135.87C10.5536 138.333 13.25 141.797 16.6753 145.897C23.5042 154.071 33.3372 164.902 45.289 175.394L61.7817 156.606C51.0682 147.201 42.1335 137.377 35.861 129.868C34.2747 127.97 32.8656 126.227 31.6481 124.688ZM208.835 58.8425L59.3352 208.218L41.6649 190.532L191.165 41.1575L208.835 58.8425ZM215.334 119.74C209.185 112.362 200.417 102.683 189.887 93.3582L206.46 74.6418C218.196 85.0339 227.841 95.6987 234.539 103.735C237.898 107.765 240.541 111.166 242.361 113.582C243.272 114.791 243.978 115.756 244.467 116.433C244.711 116.771 244.901 117.038 245.035 117.227C245.102 117.322 245.155 117.397 245.194 117.453L245.242 117.521L245.257 117.543L245.266 117.555C245.266 117.555 245.268 117.558 235 124.688C245.268 131.817 245.266 131.82 245.263 131.823L245.244 131.851L245.2 131.913C245.165 131.963 245.118 132.031 245.057 132.116C244.937 132.287 244.766 132.526 244.547 132.83C244.11 133.438 243.477 134.305 242.662 135.393C241.031 137.569 238.664 140.637 235.648 144.3C229.634 151.609 220.963 161.386 210.357 171.204C189.719 190.31 159.304 211.875 125.5 211.875C110.749 211.875 96.7451 207.761 84.1238 201.749L94.8762 179.179C105.103 184.051 115.407 186.875 125.5 186.875C149.338 186.875 173.673 171.097 193.374 152.858C202.938 144.004 210.835 135.109 216.345 128.414C217.448 127.074 218.452 125.825 219.352 124.688C218.185 123.211 216.841 121.549 215.334 119.74ZM235 124.688L245.268 131.817L250.218 124.688L245.268 117.558L235 124.688ZM77 124.188C77 97.954 98.2665 76.6875 124.5 76.6875V101.688C112.074 101.688 102 111.761 102 124.188H77ZM172 124.188C172 150.421 150.734 171.688 124.5 171.688V146.688C136.926 146.688 147 136.614 147 124.188H172Z" fill="black"/>
</svg>
