<svg width="251" height="249" viewBox="0 0 251 249" fill="none" xmlns="http://www.w3.org/2000/svg">
<path fill-rule="evenodd" clip-rule="evenodd" d="M31.6481 124.688C32.5477 125.825 33.552 127.074 34.6553 128.414C40.1651 135.109 48.0617 144.004 57.6259 152.858C77.3273 171.097 101.662 186.875 125.5 186.875C149.338 186.875 173.673 171.097 193.374 152.858C202.938 144.004 210.835 135.109 216.345 128.414C217.448 127.074 218.452 125.825 219.352 124.688C218.452 123.55 217.448 122.301 216.345 120.961C210.835 114.266 202.938 105.371 193.374 96.5166C173.673 78.2783 149.338 62.5 125.5 62.5C101.662 62.5 77.3273 78.2783 57.6259 96.5166C48.0617 105.371 40.1651 114.266 34.6553 120.961C33.552 122.301 32.5477 123.55 31.6481 124.688ZM235 124.688C245.268 117.558 245.266 117.555 245.263 117.552L245.244 117.524L245.2 117.462C245.165 117.412 245.118 117.344 245.057 117.259C244.937 117.088 244.766 116.849 244.547 116.545C244.11 115.937 243.477 115.07 242.662 113.982C241.031 111.806 238.664 108.738 235.648 105.075C229.634 97.7657 220.963 87.9888 210.357 78.1709C189.719 59.0655 159.304 37.5 125.5 37.5C91.6955 37.5 61.2806 59.0655 40.6426 78.1709C30.037 87.9888 21.3665 97.7657 15.3517 105.075C12.3364 108.738 9.96854 111.806 8.33827 113.982C7.52269 115.07 6.89037 115.937 6.45258 116.545C6.23365 116.849 6.06324 117.088 5.94276 117.259C5.88252 117.344 5.83475 117.412 5.79963 117.462L5.75644 117.524L5.742 117.544L5.73658 117.552C5.73437 117.555 5.73235 117.558 16 124.688L5.73235 117.558L0.782349 124.688L5.73235 131.817L16 124.688C5.73235 131.817 5.73437 131.82 5.73658 131.823L5.742 131.831L5.75644 131.851L5.79963 131.913C5.83475 131.963 5.88252 132.031 5.94276 132.116C6.06324 132.287 6.23365 132.526 6.45258 132.83C6.89037 133.438 7.52269 134.305 8.33827 135.393C9.96854 137.569 12.3364 140.637 15.3517 144.3C21.3665 151.609 30.037 161.386 40.6426 171.204C61.2806 190.31 91.6955 211.875 125.5 211.875C159.304 211.875 189.719 190.31 210.357 171.204C220.963 161.386 229.634 151.609 235.648 144.3C238.664 140.637 241.031 137.569 242.662 135.393C243.477 134.305 244.11 133.438 244.547 132.83C244.766 132.526 244.937 132.287 245.057 132.116C245.118 132.031 245.165 131.963 245.2 131.913L245.244 131.851L245.263 131.823C245.266 131.82 245.268 131.817 235 124.688ZM235 124.688L245.268 131.817L250.218 124.688L245.268 117.558L235 124.688Z" fill="black"/>
<path fill-rule="evenodd" clip-rule="evenodd" d="M124 146C136.15 146 146 136.15 146 124C146 111.85 136.15 102 124 102C111.85 102 102 111.85 102 124C102 136.15 111.85 146 124 146ZM124 172C150.51 172 172 150.51 172 124C172 97.4903 150.51 76 124 76C97.4904 76 76 97.4903 76 124C76 150.51 97.4904 172 124 172Z" fill="black"/>
</svg>
