<svg width="20" height="20" viewBox="0 0 20 20" fill="none" xmlns="http://www.w3.org/2000/svg">
<path d="M2 8.22222V18.0436C2 18.2957 2.20433 18.5 2.45638 18.5H6.96309C7.21514 18.5 7.41946 18.2957 7.41946 18.0436V13.4228C7.41946 13.1708 7.62379 12.9664 7.87584 12.9664H12.3255C12.5776 12.9664 12.7819 13.1708 12.7819 13.4228V18.0436C12.7819 18.2957 12.9862 18.5 13.2383 18.5H17.745C17.997 18.5 18.2013 18.2957 18.2013 18.0436V8.22222C18.2013 8.08385 18.1386 7.95296 18.0307 7.86634L10.3864 1.72937C10.2195 1.59538 9.98187 1.59538 9.81496 1.72937L2.17067 7.86634C2.06277 7.95296 2 8.08385 2 8.22222Z" stroke="white" stroke-width="2.85235"/>
</svg>
