<svg width="21" height="20" viewBox="0 0 21 20" fill="none" xmlns="http://www.w3.org/2000/svg">
<path d="M18.1183 1.70386H13.1406C12.8788 1.70386 12.6665 1.91611 12.6665 2.17793V7.15565C12.6665 7.41747 12.8788 7.62972 13.1406 7.62972H18.1183C18.3802 7.62972 18.5924 7.41747 18.5924 7.15565V2.17793C18.5924 1.91611 18.3802 1.70386 18.1183 1.70386Z" stroke="white" stroke-width="2.96293"/>
<path d="M18.5924 17.8222V12.8445C18.5924 12.5827 18.3802 12.3704 18.1183 12.3704H13.1406C12.8788 12.3704 12.6665 12.5827 12.6665 12.8445V17.8222C12.6665 18.084 12.8788 18.2963 13.1406 18.2963H18.1183C18.3802 18.2963 18.5924 18.084 18.5924 17.8222Z" stroke="white" stroke-width="2.96293"/>
<path d="M2.47407 18.2963H7.45179C7.71361 18.2963 7.92586 18.084 7.92586 17.8222V12.8445C7.92586 12.5827 7.71361 12.3704 7.45179 12.3704H2.47407C2.21225 12.3704 2 12.5827 2 12.8445V17.8222C2 18.084 2.21225 18.2963 2.47407 18.2963Z" stroke="white" stroke-width="2.96293"/>
<path d="M7.92586 4.66679C7.92586 6.30317 6.59931 7.62972 4.96293 7.62972C3.32655 7.62972 2 6.30317 2 4.66679C2 3.03041 3.32655 1.70386 4.96293 1.70386C6.59931 1.70386 7.92586 3.03041 7.92586 4.66679Z" stroke="white" stroke-width="2.96293"/>
</svg>
