<svg width="51" height="51" viewBox="0 0 51 51" fill="none" xmlns="http://www.w3.org/2000/svg">
<circle cx="25.5" cy="25.5" r="25.5" fill="#39A048"/>
<path d="M17 34H33.2013C33.2013 29.6663 29.6882 26.1531 25.3545 26.1531H24.8469C20.5132 26.1531 17 29.6663 17 34Z" fill="white"/>
<path d="M25.1007 17C26.5815 17 27.7819 18.2198 27.7819 19.7005C27.7819 21.1813 26.5815 22.4011 25.1007 22.4011C23.6199 22.4011 22.4195 21.1813 22.4195 19.7005C22.4195 18.2198 23.6199 17 25.1007 17Z" fill="white"/>
<path d="M17 34H33.2013C33.2013 29.6663 29.6882 26.1531 25.3545 26.1531H24.8469C20.5132 26.1531 17 29.6663 17 34Z" stroke="white" stroke-width="2.85235"/>
<path d="M25.1007 17C26.5815 17 27.7819 18.2198 27.7819 19.7005C27.7819 21.1813 26.5815 22.4011 25.1007 22.4011C23.6199 22.4011 22.4195 21.1813 22.4195 19.7005C22.4195 18.2198 23.6199 17 25.1007 17Z" stroke="white" stroke-width="2.85235"/>
</svg>
