<svg width="222" height="178" viewBox="0 0 222 178" fill="none" xmlns="http://www.w3.org/2000/svg">
<path d="M35.7324 109L24.0664 104.511L17.5287 121.5H35.7324V109ZM131.859 109V121.5H150.418L143.443 104.302L131.859 109ZM13 109V96.5C6.09644 96.5 0.5 102.096 0.5 109H13ZM155 109H167.5C167.5 102.096 161.904 96.5 155 96.5V109ZM27 165H14.5C14.5 171.904 20.0964 177.5 27 177.5V165ZM13 147H0.5C0.5 153.904 6.09644 159.5 13 159.5L13 147ZM155 147V159.5C161.904 159.5 167.5 153.904 167.5 147H155ZM27 147H39.5V134.5H27V147ZM141 147V134.5H128.5V147H141ZM156.232 98.1479L156.907 85.6661L156.57 85.6479H156.232V98.1479ZM209.303 116.895H221.803C221.803 109.991 216.206 104.395 209.303 104.395V116.895ZM198.526 165V177.5C205.43 177.5 211.026 171.904 211.026 165H198.526ZM209.303 151.145V163.645C216.206 163.645 221.803 158.048 221.803 151.145H209.303ZM198.526 151.145V138.645H186.026V151.145H198.526ZM130.156 105.259L119.006 110.908L130.156 105.259ZM80.6687 90.6494H86.0538V65.6494H80.6687V90.6494ZM113.534 30.1564C113.534 13.9626 100.428 0.5 84.0002 0.5V25.5C86.3874 25.5 88.5337 27.5355 88.5337 30.1564H113.534ZM88.5337 30.1564C88.5337 32.7773 86.3874 34.8128 84.0002 34.8128V59.8128C100.428 59.8128 113.534 46.3502 113.534 30.1564H88.5337ZM54.4666 30.1564C54.4666 46.3502 67.5727 59.8128 84.0002 59.8128V34.8128C81.6129 34.8128 79.4666 32.7773 79.4666 30.1564H54.4666ZM79.4666 30.1564C79.4666 27.5355 81.6129 25.5 84.0002 25.5V0.5C67.5727 0.5 54.4666 13.9626 54.4666 30.1564H79.4666ZM47.3985 113.489C52.5471 100.11 65.5186 90.6494 80.6687 90.6494V65.6494C54.8357 65.6494 32.8058 81.8 24.0664 104.511L47.3985 113.489ZM35.7324 121.5H131.859V96.5H35.7324V121.5ZM13 121.5H155V96.5H13V121.5ZM141 152.5H27V177.5H141V152.5ZM25.5 147V109H0.5V147H25.5ZM39.5 165V147H14.5V165H39.5ZM27 134.5H13V159.5H27V134.5ZM155 134.5H141V159.5H155V134.5ZM128.5 147V165H153.5V147H128.5ZM152.087 110.648H156.232V85.6479H152.087V110.648ZM179.263 56.2059C179.263 49.726 177.034 43.3743 172.31 38.5977C167.572 33.8068 161.211 31.5 154.651 31.5V56.5C155.028 56.5 155.128 56.5626 155.034 56.5255C154.99 56.5083 154.914 56.4734 154.82 56.4117C154.726 56.3498 154.628 56.2711 154.535 56.1773C154.442 56.0835 154.368 55.9884 154.313 55.902C154.258 55.816 154.23 55.7525 154.219 55.7246C154.196 55.6636 154.263 55.7996 154.263 56.2059H179.263ZM154.263 56.2059C154.263 56.6122 154.196 56.7483 154.219 56.6872C154.23 56.6593 154.258 56.5958 154.313 56.5098C154.368 56.4234 154.442 56.3283 154.535 56.2346C154.628 56.1407 154.726 56.062 154.82 56.0001C154.914 55.9385 154.99 55.9035 155.034 55.8863C155.128 55.8492 155.028 55.9118 154.651 55.9118V80.9118C161.211 80.9118 167.572 78.605 172.31 73.8141C177.034 69.0375 179.263 62.6858 179.263 56.2059H154.263ZM130.04 56.2059C130.04 62.6858 132.269 69.0375 136.993 73.8141C141.731 78.605 148.092 80.9118 154.651 80.9118V55.9118C154.275 55.9118 154.174 55.8492 154.269 55.8863C154.313 55.9035 154.388 55.9385 154.483 56.0001C154.577 56.062 154.675 56.1407 154.768 56.2346C154.861 56.3283 154.935 56.4234 154.99 56.5098C155.045 56.5958 155.073 56.6593 155.083 56.6872C155.107 56.7483 155.04 56.6122 155.04 56.2059H130.04ZM155.04 56.2059C155.04 55.7996 155.107 55.6636 155.083 55.7246C155.073 55.7525 155.045 55.816 154.99 55.902C154.935 55.9884 154.861 56.0835 154.768 56.1773C154.675 56.2711 154.577 56.3498 154.483 56.4117C154.388 56.4734 154.313 56.5083 154.269 56.5255C154.174 56.5626 154.275 56.5 154.651 56.5V31.5C148.092 31.5 141.731 33.8068 136.993 38.5977C132.269 43.3743 130.04 49.726 130.04 56.2059H155.04ZM197.651 111.266C190.762 97.6061 177.399 86.7735 156.907 85.6661L155.558 110.63C166.601 111.226 172.238 116.394 175.33 122.524L197.651 111.266ZM196.803 116.895V151.145H221.803V116.895H196.803ZM209.303 138.645H198.526V163.645H209.303V138.645ZM186.026 151.145V165H211.026V151.145H186.026ZM198.526 152.5H141V177.5H198.526V152.5ZM137.639 115.272C141.59 112.319 146.39 110.648 152.087 110.648V85.6479C141.169 85.6479 131.082 88.9622 122.674 95.2456L137.639 115.272ZM155 129.395H186.49V104.395H155V129.395ZM186.49 129.395H209.303V104.395H186.49V129.395ZM142.5 109V116.895H167.5V109H142.5ZM142.5 116.895V147H167.5V116.895H142.5ZM143.443 104.302C142.794 102.703 142.081 101.138 141.307 99.6092L119.006 110.908C119.467 111.817 119.891 112.748 120.276 113.698L143.443 104.302ZM141.307 99.6092C131.112 79.4865 110.21 65.6494 86.0538 65.6494V90.6494C100.426 90.6494 112.903 98.862 119.006 110.908L141.307 99.6092Z" fill="black"/>
</svg>
