<svg width="25" height="20" viewBox="0 0 25 20" fill="none" xmlns="http://www.w3.org/2000/svg">
<path d="M17.0295 17.8852V17.8852C17.0295 13.865 13.7704 10.6059 9.75019 10.6059H9.02828C5.14667 10.6059 2 13.7526 2 17.6342V17.6342C2 17.7728 2.11238 17.8852 2.25101 17.8852H17.0295ZM17.0295 17.8852H22.7979C23.0317 17.8852 23.2231 17.695 23.2031 17.462C22.9887 14.962 20.8914 12.9998 18.3358 12.9998H18.0197C17.6991 12.9998 17.2941 13.0165 17.0295 13.1223C16.718 13.1828 16.4474 13.334 16.1828 13.5686M19.8471 7.92398C19.8471 7.00204 19.0997 6.24263 18.1778 6.24263C17.2558 6.24263 16.5085 7.00204 16.5085 7.92398C16.5085 8.84591 17.2558 9.60533 18.1778 9.60533C19.0997 9.60533 19.8471 8.84591 19.8471 7.92398ZM12.002 4.62002V4.62002C12.002 5.9937 10.8884 7.12523 9.51475 7.12523V7.12523C8.14106 7.12523 7.02747 5.9937 7.02747 4.62002V4.62002C7.02747 3.24633 8.14106 2.11481 9.51475 2.11481V2.11481C10.8884 2.11481 12.002 3.24633 12.002 4.62002Z" stroke="white" stroke-width="2.64604"/>
</svg>
