<svg width="24" height="24" viewBox="0 0 24 24" fill="none" xmlns="http://www.w3.org/2000/svg">
<path d="M2.66153 21.3567H21.5365C21.5365 16.3078 17.4436 12.2149 12.3947 12.2149H11.8033C6.75445 12.2149 2.66153 16.3078 2.66153 21.3567Z" fill="black"/>
<path d="M12.099 1.66153C13.8242 1.66153 15.2227 3.06258 15.2227 4.78774C15.2227 6.5129 13.8242 7.91394 12.099 7.91394C10.3739 7.91394 8.97535 6.5129 8.97535 4.78774C8.97535 3.06258 10.3739 1.66153 12.099 1.66153Z" fill="black"/>
<path fill-rule="evenodd" clip-rule="evenodd" d="M12.099 3.32306C11.2933 3.32306 10.6369 3.97847 10.6369 4.78774C10.6369 5.59701 11.2933 6.25241 12.099 6.25241C12.9048 6.25241 13.5612 5.59701 13.5612 4.78774C13.5612 3.97847 12.9048 3.32306 12.099 3.32306ZM7.31382 4.78774C7.31382 2.14669 9.45448 0 12.099 0C14.7436 0 16.8842 2.14669 16.8842 4.78774C16.8842 7.42879 14.7436 9.57547 12.099 9.57547C9.45448 9.57547 7.31382 7.42879 7.31382 4.78774ZM1 21.3567C1 15.3902 5.83681 10.5533 11.8033 10.5533H12.3947C18.3612 10.5533 23.1981 15.3902 23.1981 21.3567V23.0182H1V21.3567ZM4.50825 19.6951H19.6898C18.9342 16.3636 15.9549 13.8764 12.3947 13.8764H11.8033C8.24314 13.8764 5.26386 16.3636 4.50825 19.6951Z" fill="black"/>
</svg>
