<svg viewBox="0 0 226 175" fill="none" xmlns="http://www.w3.org/2000/svg">
<path d="M155 162V162C155 124.016 124.208 93.2246 86.2246 93.2246H79.4038C42.73 93.2246 13 122.955 13 159.628V159.628C13 160.938 14.0618 162 15.3716 162H155ZM155 162H209.5C211.709 162 213.518 160.203 213.329 158.002C211.303 134.382 191.487 115.842 167.342 115.842H164.356C161.327 115.842 157.5 116 155 117C152.057 117.572 149.5 119 147 121.216M181.621 67.8855C181.621 59.175 174.56 52 165.849 52C157.138 52 150.077 59.175 150.077 67.8855C150.077 76.5961 157.138 83.7711 165.849 83.7711C174.56 83.7711 181.621 76.5961 181.621 67.8855ZM107.5 36.6695V36.6695C107.5 49.6482 96.9787 60.3389 84 60.3389V60.3389C71.0213 60.3389 60.5 49.6482 60.5 36.6695V36.6695C60.5 23.6908 71.0213 13 84 13V13C96.9787 13 107.5 23.6908 107.5 36.6695Z" stroke="black" stroke-width="25"/>
</svg>
