<svg width="23" height="20" viewBox="0 0 23 20" fill="none" xmlns="http://www.w3.org/2000/svg">
<path d="M11.1446 12.6267V12.6267C11.1446 13.4345 10.8146 14.2072 10.231 14.7658L7.55763 17.3246C6.94609 17.9099 6.13223 18.2367 5.2857 18.2367H4.90758C3.30177 18.2367 2 16.9349 2 15.3291V15.3291C2 14.5542 2.30933 13.8113 2.85932 13.2654L5.35909 10.7843C5.99081 10.1573 6.84479 9.80544 7.73485 9.80544H11.1446H14.7257C15.5522 9.80544 16.3499 9.50194 16.9674 8.95256L19.4658 6.72967C20.0721 6.19027 20.4189 5.41746 20.4189 4.60596V4.60596C20.4189 3.03604 19.1463 1.76337 17.5764 1.76337H17.1241C16.2829 1.76337 15.4735 2.08517 14.8619 2.6628L11.899 5.46104C11.4175 5.91581 11.1446 6.54889 11.1446 7.21122V7.21122" stroke="white" stroke-width="3.24277"/>
</svg>
