<svg viewBox="0 0 133 152" fill="none" xmlns="http://www.w3.org/2000/svg">
<path d="M0 66.5043H132.509V29.0019C132.509 22.374 127.136 17.0011 120.508 17.0011H109.007V12.0008C109.007 5.37293 103.634 0 97.0063 0H94.8782C88.2504 0 82.8774 5.37293 82.8774 12.0008V17.0011H48.3452V12.0008C48.3452 5.37293 42.9722 0 36.3444 0H34.0022C27.3744 0 22.0014 5.37293 22.0014 12.0008V17.0011H12.0008C5.37293 17.0011 0 22.374 0 29.0019V66.5043Z"/>
<path d="M107.125 131C101.326 131 96.625 135.701 96.625 141.5C96.625 147.299 101.326 152 107.125 152V131ZM24.375 152C30.174 152 34.875 147.299 34.875 141.5C34.875 135.701 30.174 131 24.375 131V152ZM132.5 126.625C132.5 120.826 127.799 116.125 122 116.125C116.201 116.125 111.5 120.826 111.5 126.625H132.5ZM111.5 86.875C111.5 92.674 116.201 97.375 122 97.375C127.799 97.375 132.5 92.674 132.5 86.875H111.5ZM0 86.875C0 92.674 4.70101 97.375 10.5 97.375C16.299 97.375 21 92.674 21 86.875H0ZM21 126.625C21 120.826 16.299 116.125 10.5 116.125C4.70101 116.125 0 120.826 0 126.625H21ZM61.0625 131C55.2635 131 50.5625 135.701 50.5625 141.5C50.5625 147.299 55.2635 152 61.0625 152V131ZM70.4375 152C76.2365 152 80.9375 147.299 80.9375 141.5C80.9375 135.701 76.2365 131 70.4375 131V152ZM107.125 152H118V131H107.125V152ZM14.5 152H24.375V131H14.5V152ZM132.5 137.5V126.625H111.5V137.5H132.5ZM132.5 86.875V66H111.5V86.875H132.5ZM21 86.875V66H0V86.875H21ZM21 137.5V126.625H0V137.5H21ZM61.0625 152H70.4375V131H61.0625V152ZM118 152C126.008 152 132.5 145.508 132.5 137.5H111.5C111.5 133.91 114.41 131 118 131V152ZM14.5 131C18.0899 131 21 133.91 21 137.5H0C0 145.508 6.49187 152 14.5 152V131Z"/>
</svg>
