<svg viewBox="0 0 133 152" fill="none" xmlns="http://www.w3.org/2000/svg">
<path d="M0 29V140C0 146.627 5.39287 152 12.0453 152H37.2483C43.0098 152 47.6805 147.347 47.6805 141.607C47.6805 135.867 43.0098 131.214 37.2483 131.214H24.2113C22.483 131.214 21.0819 129.818 21.0819 128.096V66.5H121C127.627 66.5 133 61.1274 133 54.5V29C133 22.3726 127.607 17 120.955 17H109.411V12C109.411 5.37258 104.018 0 97.366 0H95.2301C88.5776 0 83.1848 5.37258 83.1848 12V17H48.5245V12C48.5245 5.37259 43.1316 0 36.4792 0H34.1283C27.4759 0 22.083 5.37258 22.083 12V17H12.0453C5.39286 17 0 22.3726 0 29Z"/>
<path d="M126.363 81H110.438C106.773 81 103.801 83.9717 103.801 87.6374V103.562C103.801 107.227 106.773 110.199 110.438 110.199H126.363C130.028 110.199 133 107.227 133 103.562V87.6374C133 83.9717 130.028 81 126.363 81Z"/>
<path d="M133 145.363V129.438C133 125.773 130.028 122.801 126.363 122.801H110.438C106.773 122.801 103.801 125.773 103.801 129.438V145.363C103.801 149.028 106.773 152 110.438 152H126.363C130.028 152 133 149.028 133 145.363Z"/>
<path d="M68.4859 152H84.4102C88.0759 152 91.0476 149.028 91.0476 145.363V129.438C91.0476 125.773 88.0759 122.801 84.4102 122.801H68.4859C64.8202 122.801 61.8485 125.773 61.8485 129.438V145.363C61.8485 149.028 64.8202 152 68.4859 152Z"/>
<path d="M91.0476 95.5996C91.0476 103.663 84.5112 110.199 76.448 110.199C68.3849 110.199 61.8485 103.663 61.8485 95.5996C61.8485 87.5365 68.3849 81 76.448 81C84.5112 81 91.0476 87.5365 91.0476 95.5996Z"/>
</svg>
